<svg width="207" height="20" viewBox="0 0 207 20" fill="none" xmlns="http://www.w3.org/2000/svg">
<g clip-path="url(#clip0_2_2)">
<path d="M16.0645 9.70312H6.38477V14.1738C6.38477 15.6322 6.42122 16.5892 6.49414 17.0449C6.56706 17.4915 6.74935 17.8242 7.04102 18.043C7.3418 18.2617 7.9069 18.3711 8.73633 18.3711H9.21484V19H0.875V18.3711H1.35352C2.14648 18.3711 2.69336 18.2708 2.99414 18.0703C3.30404 17.8698 3.5 17.5599 3.58203 17.1406C3.67318 16.7122 3.71875 15.7233 3.71875 14.1738V5.08203C3.71875 3.60547 3.67318 2.65299 3.58203 2.22461C3.5 1.79622 3.31771 1.5 3.03516 1.33594C2.76172 1.17188 2.1556 1.08984 1.2168 1.08984H0.875V0.460938H9.21484V1.08984H8.87305C7.9707 1.08984 7.37826 1.16732 7.0957 1.32227C6.81315 1.4681 6.62174 1.74609 6.52148 2.15625C6.43034 2.56641 6.38477 3.54167 6.38477 5.08203V8.75977H16.0645V5.08203C16.0645 3.60547 16.0234 2.65299 15.9414 2.22461C15.8594 1.79622 15.6771 1.5 15.3945 1.33594C15.1211 1.17188 14.515 1.08984 13.5762 1.08984H13.084V0.460938H21.5195V1.08984H21.2461C20.3346 1.08984 19.7376 1.16732 19.4551 1.32227C19.1725 1.4681 18.9811 1.74609 18.8809 2.15625C18.7897 2.56641 18.7441 3.54167 18.7441 5.08203V14.1738C18.7441 15.6322 18.776 16.5892 18.8398 17.0449C18.9128 17.4915 19.0996 17.8242 19.4004 18.043C19.7012 18.2617 20.2663 18.3711 21.0957 18.3711H21.5195V19H13.084V18.3711H13.7266C14.5104 18.3711 15.0527 18.2708 15.3535 18.0703C15.6634 17.8698 15.8594 17.5599 15.9414 17.1406C16.0234 16.7122 16.0645 15.7233 16.0645 14.1738V9.70312ZM34.5625 12.1641H27.5215L27.043 13.3398C26.332 15.0443 25.9766 16.1562 25.9766 16.6758C25.9766 17.2318 26.1634 17.6556 26.5371 17.9473C26.9199 18.2298 27.4076 18.3711 28 18.3711V19H22.4902V18.3711C23.3105 18.2435 23.9212 17.9564 24.3223 17.5098C24.7233 17.054 25.2064 16.1016 25.7715 14.6523C25.8171 14.5156 26.0358 13.987 26.4277 13.0664L31.8145 0.201172H32.3477L38.541 14.9258L39.3887 16.8672C39.5801 17.3047 39.8353 17.651 40.1543 17.9062C40.4824 18.1523 40.9701 18.3073 41.6172 18.3711V19H34.3301V18.3711C35.2233 18.3711 35.8249 18.3073 36.1348 18.1797C36.4538 18.043 36.6133 17.7786 36.6133 17.3867C36.6133 17.1862 36.4036 16.5892 35.9844 15.5957L34.5625 12.1641ZM34.3301 11.5488L31.0488 3.64648L27.7812 11.5488H34.3301ZM58.3516 12.041H58.9395V18.5352H58.3516C58.1875 17.7969 57.8913 17.1452 57.4629 16.5801C55.8314 18.4212 53.7487 19.3418 51.2148 19.3418C48.5352 19.3418 46.3431 18.4941 44.6387 16.7988C42.9434 15.1035 42.0957 12.8613 42.0957 10.0723C42.0957 8.24023 42.4876 6.51758 43.2715 4.9043C44.0553 3.2819 45.1491 2.07878 46.5527 1.29492C47.9564 0.511068 49.4967 0.119141 51.1738 0.119141C52.5592 0.119141 53.8125 0.40625 54.9336 0.980469C56.0638 1.54557 56.9069 2.17448 57.4629 2.86719C57.8548 2.09245 58.0918 1.29036 58.1738 0.460938H58.7754L58.9395 7.48828H58.3516C57.9414 4.99089 57.1029 3.25456 55.8359 2.2793C54.5781 1.30404 53.1562 0.816406 51.5703 0.816406C49.6289 0.816406 48.084 1.60482 46.9355 3.18164C45.7962 4.75846 45.2266 7.01432 45.2266 9.94922C45.2266 12.7292 45.8509 14.862 47.0996 16.3477C48.3483 17.8242 49.9023 18.5625 51.7617 18.5625C52.7552 18.5625 53.7715 18.321 54.8105 17.8379C55.8496 17.3548 56.6699 16.5391 57.2715 15.3906C57.8822 14.2331 58.2422 13.1165 58.3516 12.041ZM67.1836 9.89453L72.8438 4.79492C74.1562 3.61914 74.8125 2.7806 74.8125 2.2793C74.8125 1.52279 74.1562 1.1263 72.8438 1.08984V0.460938H79.8301V1.08984C79.2559 1.09896 78.6771 1.22201 78.0938 1.45898C77.5195 1.69596 76.9909 2.00586 76.5078 2.38867C76.0247 2.77148 75.127 3.57812 73.8145 4.80859L70.4375 7.92578L77.3828 14.9395C78.9688 16.5527 80.0306 17.528 80.5684 17.8652C81.1061 18.2025 81.8034 18.3711 82.6602 18.3711V19H73.0352V18.3711H73.4043C74.4434 18.3711 75.0905 18.2845 75.3457 18.1113C75.6009 17.9382 75.7285 17.724 75.7285 17.4688C75.7285 17.0859 75.0677 16.2337 73.7461 14.9121L68.5098 9.63477L67.1836 10.7969V14.1738C67.1836 15.6322 67.2201 16.5892 67.293 17.0449C67.3659 17.4915 67.5482 17.8242 67.8398 18.043C68.1406 18.2617 68.7103 18.3711 69.5488 18.3711H69.9043V19H61.5781V18.3711H62.1523C62.9453 18.3711 63.4922 18.2708 63.793 18.0703C64.1029 17.8698 64.2988 17.5599 64.3809 17.1406C64.472 16.7122 64.5176 15.7233 64.5176 14.1738V5.08203C64.5176 3.55078 64.4674 2.57552 64.3672 2.15625C64.276 1.73698 64.0892 1.45443 63.8066 1.30859C63.5241 1.16276 62.8633 1.08984 61.8242 1.08984V0.460938H70.0273V1.08984H69.6855C68.7741 1.08984 68.1771 1.16732 67.8945 1.32227C67.612 1.4681 67.4206 1.74609 67.3203 2.15625C67.2292 2.56641 67.1836 3.54167 67.1836 5.08203V9.89453ZM98.6426 13.2305H99.2988L98.9023 19H83.5488V18.3711H83.9316C84.8522 18.3711 85.4447 18.248 85.709 18.002C85.9824 17.7559 86.1556 17.446 86.2285 17.0723C86.3014 16.6895 86.3379 15.7233 86.3379 14.1738V5.08203C86.3379 3.66927 86.2969 2.73958 86.2148 2.29297C86.1419 1.84635 85.9642 1.53646 85.6816 1.36328C85.4082 1.18099 84.8249 1.08984 83.9316 1.08984V0.460938H97.1797L97.6172 5.08203H96.9746C96.6829 3.78776 96.3229 2.87174 95.8945 2.33398C95.4753 1.78711 94.974 1.44531 94.3906 1.30859C93.8073 1.16276 92.8685 1.08984 91.5742 1.08984H89.0039V8.86914H90.9727C91.875 8.86914 92.5039 8.79167 92.8594 8.63672C93.224 8.48177 93.4609 8.24935 93.5703 7.93945C93.6888 7.62044 93.748 7.00521 93.748 6.09375H94.3906V12.4375H93.748C93.748 11.4076 93.6615 10.7194 93.4883 10.373C93.3151 10.0176 93.0599 9.78971 92.7227 9.68945C92.3945 9.58008 91.834 9.52539 91.041 9.52539H89.0039V13.9141C89.0039 16.1107 89.1452 17.4049 89.4277 17.7969C89.7103 18.1797 90.4714 18.3711 91.7109 18.3711H93.0918C94.0671 18.3711 94.8691 18.248 95.498 18.002C96.127 17.7467 96.724 17.2318 97.2891 16.457C97.8633 15.6732 98.3145 14.5977 98.6426 13.2305ZM120.518 19H115.527C114.643 18.3802 113.29 16.7578 111.467 14.1328C110.883 13.2943 110.277 12.4922 109.648 11.7266C109.02 10.9518 108.587 10.4824 108.35 10.3184C108.113 10.1452 107.743 10.0586 107.242 10.0586H106.504V14.1738C106.504 15.6322 106.536 16.5892 106.6 17.0449C106.673 17.4915 106.855 17.8242 107.146 18.043C107.447 18.2617 108.017 18.3711 108.855 18.3711H109.744V19H100.871V18.3711H101.473C102.266 18.3711 102.812 18.2708 103.113 18.0703C103.423 17.8698 103.619 17.5599 103.701 17.1406C103.783 16.7122 103.824 15.7233 103.824 14.1738V5.08203C103.824 3.60547 103.783 2.65299 103.701 2.22461C103.619 1.79622 103.437 1.5 103.154 1.33594C102.872 1.17188 102.261 1.08984 101.322 1.08984H101.008V0.460938L103.66 0.324219C105.428 0.242188 106.832 0.201172 107.871 0.201172C109.639 0.201172 111.075 0.365234 112.178 0.693359C113.29 1.02148 114.188 1.55924 114.871 2.30664C115.555 3.05404 115.896 3.94727 115.896 4.98633C115.896 6.19857 115.45 7.23307 114.557 8.08984C113.663 8.94661 112.351 9.47982 110.619 9.68945C111.394 10.0632 112.643 11.4121 114.365 13.7363C115.769 15.623 116.872 16.8581 117.674 17.4414C118.476 18.0247 119.424 18.3346 120.518 18.3711V19ZM106.504 9.42969C107.188 9.41146 107.894 9.38411 108.623 9.34766C109.352 9.3112 109.986 9.21094 110.523 9.04688C111.061 8.88281 111.494 8.64583 111.822 8.33594C112.16 8.01693 112.424 7.60221 112.615 7.0918C112.807 6.58138 112.902 5.95247 112.902 5.20508C112.902 3.90169 112.574 2.85807 111.918 2.07422C111.271 1.29036 109.854 0.898438 107.666 0.898438C107.329 0.898438 106.941 0.916667 106.504 0.953125V9.42969ZM144.826 19.4238L131.715 2.04688V14.9121C131.715 15.9785 131.765 16.6803 131.865 17.0176C131.975 17.3548 132.275 17.6647 132.768 17.9473C133.26 18.2298 133.998 18.3711 134.982 18.3711V19H128.064V18.3711C128.949 18.3073 129.623 18.1478 130.088 17.8926C130.553 17.6283 130.826 17.3457 130.908 17.0449C130.999 16.7441 131.045 16.0332 131.045 14.9121V5.08203C131.045 3.66016 130.977 2.70768 130.84 2.22461C130.712 1.74154 130.503 1.43164 130.211 1.29492C129.928 1.1582 129.29 1.08984 128.297 1.08984V0.460938H133.766L144.744 14.9668V3.87891C144.744 3.05859 144.658 2.48438 144.484 2.15625C144.32 1.82812 143.979 1.56836 143.459 1.37695C142.939 1.18555 142.315 1.08984 141.586 1.08984V0.460938H148.312V1.08984C147.529 1.15365 146.909 1.30404 146.453 1.54102C146.007 1.77799 145.719 2.0651 145.592 2.40234C145.473 2.73047 145.414 3.29102 145.414 4.08398V19.4238H144.826ZM164.568 13.2305H165.225L164.828 19H149.475V18.3711H149.857C150.778 18.3711 151.37 18.248 151.635 18.002C151.908 17.7559 152.081 17.446 152.154 17.0723C152.227 16.6895 152.264 15.7233 152.264 14.1738V5.08203C152.264 3.66927 152.223 2.73958 152.141 2.29297C152.068 1.84635 151.89 1.53646 151.607 1.36328C151.334 1.18099 150.751 1.08984 149.857 1.08984V0.460938H163.105L163.543 5.08203H162.9C162.609 3.78776 162.249 2.87174 161.82 2.33398C161.401 1.78711 160.9 1.44531 160.316 1.30859C159.733 1.16276 158.794 1.08984 157.5 1.08984H154.93V8.86914H156.898C157.801 8.86914 158.43 8.79167 158.785 8.63672C159.15 8.48177 159.387 8.24935 159.496 7.93945C159.615 7.62044 159.674 7.00521 159.674 6.09375H160.316V12.4375H159.674C159.674 11.4076 159.587 10.7194 159.414 10.373C159.241 10.0176 158.986 9.78971 158.648 9.68945C158.32 9.58008 157.76 9.52539 156.967 9.52539H154.93V13.9141C154.93 16.1107 155.071 17.4049 155.354 17.7969C155.636 18.1797 156.397 18.3711 157.637 18.3711H159.018C159.993 18.3711 160.795 18.248 161.424 18.002C162.053 17.7467 162.65 17.2318 163.215 16.457C163.789 15.6732 164.24 14.5977 164.568 13.2305ZM185.404 19.4512H184.789L179.143 4.16602L174.207 19.4512H173.551L169.08 5.01367C168.679 3.70117 168.387 2.83073 168.205 2.40234C168.032 1.96484 167.799 1.64583 167.508 1.44531C167.225 1.23568 166.751 1.11719 166.086 1.08984V0.460938H173.045V1.08984C172.206 1.14453 171.669 1.26758 171.432 1.45898C171.195 1.64128 171.076 1.90104 171.076 2.23828C171.076 2.53906 171.268 3.30924 171.65 4.54883L174.959 15.3496L179.799 0.460938H180.564L186.006 15.3496L188.836 5.50586C189.21 4.17513 189.396 3.30469 189.396 2.89453C189.396 1.69141 188.754 1.08984 187.469 1.08984V0.460938H192.527V1.08984C191.78 1.14453 191.224 1.42253 190.859 1.92383C190.495 2.41602 190.035 3.60547 189.479 5.49219L185.404 19.4512ZM194.25 18.8086V12.8477H194.934C195.708 16.7305 197.545 18.6719 200.443 18.6719C201.747 18.6719 202.754 18.3027 203.465 17.5645C204.185 16.8171 204.545 15.9831 204.545 15.0625C204.545 14.1328 204.23 13.3535 203.602 12.7246C202.973 12.1048 201.824 11.4395 200.156 10.7285C198.671 10.0905 197.549 9.53451 196.793 9.06055C196.036 8.57747 195.444 7.95312 195.016 7.1875C194.596 6.42188 194.387 5.60612 194.387 4.74023C194.387 3.41862 194.842 2.32031 195.754 1.44531C196.674 0.561198 197.837 0.119141 199.24 0.119141C200.024 0.119141 200.762 0.246745 201.455 0.501953C202.148 0.757161 202.859 1.28581 203.588 2.08789C204.007 1.58659 204.244 1.04427 204.299 0.460938H204.9V5.31445H204.299C203.952 3.90169 203.337 2.78971 202.453 1.97852C201.578 1.16732 200.562 0.761719 199.404 0.761719C198.301 0.761719 197.49 1.0625 196.971 1.66406C196.46 2.25651 196.205 2.9082 196.205 3.61914C196.205 4.47591 196.529 5.20052 197.176 5.79297C197.814 6.39453 198.967 7.06901 200.635 7.81641C202.23 8.52734 203.387 9.10156 204.107 9.53906C204.837 9.96745 205.42 10.5645 205.857 11.3301C206.295 12.0957 206.514 12.9798 206.514 13.9824C206.514 15.5684 205.985 16.8581 204.928 17.8516C203.87 18.8451 202.458 19.3418 200.689 19.3418C198.657 19.3418 196.962 18.5625 195.604 17.0039C195.303 17.4323 195.079 18.0339 194.934 18.8086H194.25Z" fill="#3B3B3B"/>
</g>
<defs>
<clipPath id="clip0_2_2">
<rect width="207" height="20" fill="white"/>
</clipPath>
</defs>
</svg>
